<?xml version="1.0" encoding="UTF-8"?>
<svg width="128" height="128" viewBox="0 0 128 128" xmlns="http://www.w3.org/2000/svg">
  <!-- Background -->
  <rect x="0" y="0" width="128" height="128" rx="20" fill="#FF69B4"/>
  
  <!-- Cat silhouette -->
  <path d="M64 20
           C 40 20, 20 40, 20 64
           C 20 88, 40 108, 64 108
           C 88 108, 108 88, 108 64
           C 108 40, 88 20, 64 20
           M 45 50 L 35 40 L 45 45
           M 83 50 L 93 40 L 83 45
           M 55 70 Q 64 80 73 70
           M 45 60 C 45 65, 50 65, 50 60
           M 78 60 C 78 65, 83 65, 83 60"
        fill="white" stroke="none"/>
  
  <!-- Stars -->
  <path d="M30 30l3 9h9l-7 5 3 9-8-6-8 6 3-9-7-5h9z" fill="#FFD700"/>
  <path d="M90 85l3 9h9l-7 5 3 9-8-6-8 6 3-9-7-5h9z" fill="#FFD700"/>
  <path d="M85 25l2 6h6l-5 3 2 6-5-4-5 4 2-6-5-3h6z" fill="#FFD700"/>
  
  <!-- Music notes -->
  <path d="M25 85q2-10 10-8l2 10q-8-2-10 8z" fill="#FFD700"/>
  <path d="M95 45q2-10 10-8l2 10q-8-2-10 8z" fill="#FFD700"/>
</svg> 